Coordinates
version=1
nRows=15
nColumns=34
inDegrees=yes

Units are S.I. units (second, meters, Newtons, ...)
If the header above contains a line with 'inDegrees', this indicates whether rotational values are in degrees (yes) or radians (no).

endheader
time	pelvis_tilt	pelvis_list	pelvis_rotation	pelvis_tx	pelvis_ty	pelvis_tz	hip_flexion_r	hip_adduction_r	hip_rotation_r	knee_angle_r	ankle_angle_r	subtalar_angle_r	mtp_angle_r	hip_flexion_l	hip_adduction_l	hip_rotation_l	knee_angle_l	ankle_angle_l	subtalar_angle_l	mtp_angle_l	lumbar_extension	lumbar_bending	lumbar_rotation	arm_flex_r	arm_add_r	arm_rot_r	elbow_flex_r	pro_sup_r	arm_flex_l	arm_add_l	arm_rot_l	elbow_flex_l	pro_sup_l
     12.68333330	     -0.32310047	     -8.43793108	   -175.16896308	      0.11759882	      1.12086537	      0.16946348	     26.72580610	     -7.77973981	     -8.39762187	     10.81868441	    -10.88987004	      9.12076782	      0.00000000	    -13.74733146	      8.81606618	      1.10360869	     58.20733239	    -14.78232550	    -20.17240330	      0.00000000	    -15.52107604	    -10.75590238	    -19.16423985	    -24.95371413	    -13.77964393	     -1.19016277	     98.80473744	     95.79515055	     15.59472696	    -26.97237309	     26.78558149	    105.99110420	     78.54671965
     12.69166670	     -0.70829137	     -8.34945418	   -175.41227755	      0.11650706	      1.11589458	      0.16939196	     25.79596913	     -7.57604981	     -8.55860813	     10.77091126	    -11.59085341	      8.94357880	      0.00000000	    -12.76067859	      8.69883214	      1.33469188	     63.36315893	    -14.70512588	    -21.09294011	      0.00000000	    -15.83196970	    -10.33360016	    -18.36356891	    -24.23172000	    -13.81380171	     -1.55301731	     98.97054891	     95.87369160	     14.69237110	    -27.25804297	     27.29181330	    105.50403375	     78.55440717
     12.70000000	     -0.91479350	     -8.25816064	   -175.66455848	      0.11609597	      1.10928479	      0.16977921	     25.15126926	     -7.40811173	     -8.74516289	     11.42035565	    -12.12759723	      8.08469572	      0.00000000	    -11.36086442	      8.63603653	      1.47103383	     68.70446961	    -15.77914111	    -22.69461661	      0.00000000	    -16.07346474	     -9.80010579	    -17.37745959	    -23.70161656	    -13.90188935	     -1.94730295	     99.30899336	     96.10864053	     13.46715860	    -27.59060149	     27.75105395	    105.01060133	     78.64069886
     12.70833330	     -1.17586361	     -7.98311237	   -176.02228333	      0.11574978	      1.10204582	      0.16969792	     24.48815905	     -6.99513882	     -8.82693357	     12.57739894	    -11.88939082	      7.02481018	      0.00000000	     -9.87095323	      8.27803253	      1.32263385	     74.06183793	    -16.36756083	    -23.66049558	      0.00000000	    -16.39184529	     -9.03219627	    -16.27899570	    -22.97420275	    -14.17071497	     -2.24258030	     99.63179025	     96.26746673	     12.06892052	    -27.99260914	     27.93883064	    104.40536825	     78.76608153
     12.71666670	     -1.17030610	     -7.77963249	   -176.37206528	      0.11556258	      1.09336648	      0.16947497	     24.21672569	     -6.60957055	     -8.58917163	     14.29100424	    -12.02140081	      5.00560686	      0.00000000	     -7.90840623	      7.81560358	      0.97027507	     79.44061593	    -17.21408154	    -24.67545379	      0.00000000	    -16.44981239	     -8.38782819	    -15.10302932	    -22.22647025	    -14.56027733	     -2.45617254	    100.23555414	     96.56550141	     10.56510650	    -28.32575338	     27.44586606	    103.57656961	     79.08948518
     12.72500000	     -1.09861219	     -7.38111453	   -176.72696922	      0.11591797	      1.08415160	      0.16918539	     24.17819392	     -5.99271253	     -8.03013637	     16.56525490	    -11.03702707	      2.70844167	      0.00000000	     -5.88256190	      7.19454870	      0.66393300	     84.55530259	    -16.55240416	    -24.43226716	      0.00000000	    -16.52156281	     -7.53239850	    -13.88587813	    -21.39417284	    -15.10263200	     -2.60729306	    100.82099147	     96.85351496	      8.91618545	    -28.65390600	     26.80841539	    102.53678334	     79.53215617
     12.73333330	     -0.94433890	     -6.81721212	   -177.18660974	      0.11636473	      1.07536523	      0.16867582	     24.48299702	     -5.07409524	     -6.82008361	     19.60306495	     -8.87835287	     -0.14100191	      0.00000000	     -3.51843027	      6.19795387	      0.23802804	     89.61033459	    -16.00074430	    -24.16597477	      0.00000000	    -16.57907443	     -6.55821761	    -12.48716137	    -20.43179470	    -15.75944404	     -2.70146987	    101.35727600	     97.14048795	      7.28736920	    -28.84773403	     25.84079193	    101.17954564	     80.08523133
     12.74166670	     -0.62046684	     -6.20828468	   -177.44054086	      0.11740167	      1.06719552	      0.16803622	     25.10041958	     -4.03940236	     -5.23130082	     23.23772941	     -6.27276764	     -3.41717521	      0.00000000	     -0.95755290	      5.15589797	     -0.00794783	     94.25677348	    -14.99126399	    -24.10939906	      0.00000000	    -16.59743470	     -5.56083284	    -11.17176149	    -19.39427172	    -16.42843500	     -2.75724184	    101.75624197	     97.48801716	      5.69048865	    -28.92270791	     24.54448931	     99.59559185	     80.90336831
     12.75000000	     -0.15251391	     -5.62878758	   -177.65981165	      0.11848391	      1.05986952	      0.16762880	     25.95214690	     -2.99849108	     -3.76649102	     27.28945814	     -3.21601748	     -6.70414567	      0.00000000	      2.02803794	      4.19204294	      0.04921661	     98.74856004	    -13.40601803	    -23.09290570	      0.00000000	    -16.42428001	     -4.71540073	     -9.95472931	    -18.16258232	    -17.03819350	     -2.61271125	    101.77620263	     98.00650074	      3.69471950	    -28.89645981	     22.96871907	     98.09627638	     82.36292167
     12.75833330	      0.37179941	     -5.06873323	   -177.83506338	      0.12038446	      1.05333011	      0.16576062	     26.76062200	     -1.81851523	     -2.17580161	     31.23783174	     -0.19824324	     -9.88128794	      0.00000000	      5.13890863	      3.14146826	      0.15862063	    102.73876329	    -12.22967563	    -22.62044262	      0.00000000	    -16.31418278	     -3.95234908	     -8.78250283	    -16.57137294	    -17.68029053	     -2.21402186	    101.71642674	     98.56904644	      1.69515710	    -29.04561018	     21.26420858	     96.44017969	     84.15465127
     12.76666670	      0.70554056	     -4.54289003	   -178.17935432	      0.12234122	      1.04762143	      0.16421569	     27.19547310	     -0.55933891	     -0.52259612	     34.88081117	      2.70208727	    -12.15533345	      0.00000000	      8.05881595	      2.18470633	      0.13475708	    106.09974083	    -11.16811842	    -22.34659082	      0.00000000	    -16.56524110	     -3.27457062	     -7.18153286	    -14.94876786	    -18.31953212	     -1.91268697	    101.84337758	     98.84147268	      0.31559880	    -29.17727481	     20.10787856	     94.48153849	     85.05632792
     12.77500000	      1.24624277	     -3.96725373	   -178.27853890	      0.12443266	      1.04202009	      0.16252132	     27.52590201	      0.66812875	      0.75312410	     37.95546228	      5.14549301	    -14.51563912	      0.00000000	     11.30206086	      1.20570328	      0.42895317	    109.02597836	    -10.47855341	    -22.23798321	      0.00000000	    -16.46814377	     -2.60776808	     -5.72147038	    -13.05953919	    -18.73513684	     -1.46427499	    101.30563673	     99.13796202	     -1.14235474	    -29.20603802	     19.06626199	     92.39547928	     86.10237459
     12.78333330	      1.88472121	     -3.42876777	   -178.17106858	      0.12544855	      1.03706953	      0.16166091	     27.57358127	      1.65777927	      1.53013782	     40.35960073	      7.28501144	    -16.57921200	      0.00000000	     14.65965426	      0.45970812	      0.99380397	    111.38571587	     -9.82704899	    -21.44580793	      0.00000000	    -16.16048648	     -2.10121577	     -5.26406282	    -10.11031098	    -19.21191979	      0.36730679	     99.70537780	     99.89429005	     -3.69529195	    -29.43041994	     17.10435162	     90.78987675	     89.11952936
     12.79166670	      1.89492021	     -2.99750224	   -178.72447218	      0.12770667	      1.03318088	      0.16056967	     26.76823807	      2.69842609	      2.67999544	     42.34018922	      9.07009259	    -17.71972732	      0.00000000	     17.28411256	     -0.28484094	      0.94136621	    113.03163655	     -9.33406322	    -20.92656556	      0.00000000	    -16.85565024	     -1.61594617	     -3.11665467	     -8.04355432	    -19.50400839	      0.48467557	     99.61623080	     99.95713455	     -4.80789057	    -29.30331756	     16.60730405	     89.17345872	     89.44581731
     12.80000000	      2.66979330	     -2.55916895	   -178.80231673	      0.12970920	      1.02942412	      0.15967143	     26.44358898	      3.39500374	      3.12411645	     43.67444121	      9.64426052	    -19.40839914	      0.00000000	     20.98198288	     -0.77613918	      1.30994301	    114.33690570	     -7.86457117	    -19.61185302	      0.00000000	    -16.28995683	     -1.09862419	     -2.44332886	     -4.70323280	    -20.04113984	      2.53111814	     97.85351462	    100.26095991	     -7.24555837	    -29.27049096	     14.69315314	     87.34139316	     91.42335127
